# xmcd
#
# Track frame offsets: 
#        150
#        10083
#        20844
#        26758
#        36234
#        44761
#        53560
#        65364
#        74648
#        85351
#        93098
#        103194
#        113260
#        121355
#        130541
#        139340
#        150790
#        161904
#        167553
#        178750
#        190345
#        202376
#        212134
#        222193
#        234029
#        244694
#        252395
#        260560
#
# Disc length: 3612 seconds
#
# Revision: 0
# Processed by: cddbd v1.5.2PL0 Copyright (c) Steve Scherf et al.
# Submitted via: ExactAudioCopy v0.99pb4
#
DISCID=910e1a1c
DTITLE=Johnny Cash - Greatest 1.-12.  (1959) and Now here's Johnny Cash 
DTITLE=13.-24. (1961)
DYEAR=1961
DGENRE=Country
TTITLE0=Goodbye, Little Darlin'
TTITLE1=I Just Thought You'd Like To Know
TTITLE2=You Tell Me
TTITLE3=It's Just About Time
TTITLE4=I Forgot To Remember To Forget
TTITLE5=Katy Too
TTITLE6=Thanks A Lot
TTITLE7=Luther Played The Boogie
TTITLE8=You Win Again
TTITLE9=Hey, Good Lookin'
TTITLE10=I Could Never Be Ashamed Of You
TTITLE11=Get Rhythm
TTITLE12=Sugartime
TTITLE13=Down The Street To 301
TTITLE14=Life Goes On
TTITLE15=Port Of Lonely Hearts
TTITLE16=Cry, Cry, Cry
TTITLE17=My Treasure
TTITLE18=Oh, Lonesome Me
TTITLE19=So Doggone Lonesome
TTITLE20=You're The Nearest Thing To Heaven
TTITLE21=The Story Of A Broken Heart
TTITLE22=Hey! Porter
TTITLE23=Home Of Blues
TTITLE24=Fool's Hall Of Fame ( Undubbed version)
TTITLE25=Rock'n'Roll Ruby (Demo)
TTITLE26=Country Boy (Demo)
TTITLE27=Train Of Love (Alternate version)
EXTD=
EXTT0=
EXTT1=
EXTT2=
EXTT3=
EXTT4=
EXTT5=
EXTT6=
EXTT7=
EXTT8=
EXTT9=
EXTT10=
EXTT11=
EXTT12=
EXTT13=
EXTT14=
EXTT15=
EXTT16=
EXTT17=
EXTT18=
EXTT19=
EXTT20=
EXTT21=
EXTT22=
EXTT23=
EXTT24=
EXTT25=
EXTT26=
EXTT27=
PLAYORDER=
